<mxfile host="Electron" modified="2024-02-04T16:37:08.774Z" agent="Mozilla/5.0 (Windows NT 10.0; Win64; x64) AppleWebKit/537.36 (KHTML, like Gecko) draw.io/21.6.5 Chrome/114.0.5735.243 Electron/25.3.1 Safari/537.36" etag="PUCfW8JQwQ5KrAl9RNSO" version="21.6.5" type="device">
  <diagram name="Page-1" id="9f46799a-70d6-7492-0946-bef42562c5a5">
    <mxGraphModel dx="473" dy="431" grid="1" gridSize="10" guides="1" tooltips="1" connect="1" arrows="1" fold="1" page="1" pageScale="1" pageWidth="1100" pageHeight="850" background="none" math="0" shadow="0">
      <root>
        <mxCell id="0" />
        <mxCell id="1" parent="0" />
        <mxCell id="_33wSnnd3f7Oau2HynZq-1" value="ID[&amp;nbsp; &amp;nbsp; &amp;nbsp; &amp;nbsp; &amp;nbsp; &amp;nbsp; &amp;nbsp; ]" style="rounded=0;whiteSpace=wrap;html=1;shadow=0;" vertex="1" parent="1">
          <mxGeometry x="230" y="30" width="160" height="120" as="geometry" />
        </mxCell>
        <mxCell id="_33wSnnd3f7Oau2HynZq-2" value="&lt;span style=&quot;background-color: rgb(255, 153, 255);&quot;&gt;welcome&lt;/span&gt;" style="text;html=1;strokeColor=none;fillColor=none;align=center;verticalAlign=middle;whiteSpace=wrap;rounded=0;" vertex="1" parent="1">
          <mxGeometry x="280" y="40" width="60" height="30" as="geometry" />
        </mxCell>
        <mxCell id="_33wSnnd3f7Oau2HynZq-3" value="please enter ID" style="text;html=1;strokeColor=none;fillColor=none;align=center;verticalAlign=middle;whiteSpace=wrap;rounded=0;strokeWidth=0;fontSize=6;" vertex="1" parent="1">
          <mxGeometry x="280" y="50" width="60" height="30" as="geometry" />
        </mxCell>
        <mxCell id="_33wSnnd3f7Oau2HynZq-4" value="" style="whiteSpace=wrap;html=1;aspect=fixed;" vertex="1" parent="1">
          <mxGeometry x="250" y="120" width="10" height="10" as="geometry" />
        </mxCell>
        <mxCell id="_33wSnnd3f7Oau2HynZq-5" value="Worker login" style="text;html=1;strokeColor=none;fillColor=none;align=center;verticalAlign=middle;rounded=0;" vertex="1" parent="1">
          <mxGeometry x="260" y="110" width="70" height="30" as="geometry" />
        </mxCell>
        <mxCell id="_33wSnnd3f7Oau2HynZq-7" value="Username/[&amp;nbsp; &amp;nbsp; &amp;nbsp; &amp;nbsp; &amp;nbsp; &amp;nbsp; &amp;nbsp; ]&lt;br&gt;password[&amp;nbsp; &amp;nbsp; &amp;nbsp; &amp;nbsp; &amp;nbsp; &amp;nbsp; &amp;nbsp; &amp;nbsp;]" style="rounded=0;whiteSpace=wrap;html=1;shadow=0;" vertex="1" parent="1">
          <mxGeometry x="230" y="190" width="160" height="120" as="geometry" />
        </mxCell>
        <mxCell id="_33wSnnd3f7Oau2HynZq-8" value="please enter Username &amp;amp; password" style="text;html=1;strokeColor=none;fillColor=none;align=center;verticalAlign=middle;whiteSpace=wrap;rounded=0;strokeWidth=0;fontSize=6;" vertex="1" parent="1">
          <mxGeometry x="260" y="210" width="100" height="30" as="geometry" />
        </mxCell>
        <mxCell id="_33wSnnd3f7Oau2HynZq-10" value="&lt;span style=&quot;background-color: rgb(255, 153, 255);&quot;&gt;welcome&lt;br&gt;worker&lt;br&gt;&lt;br&gt;&lt;/span&gt;" style="text;html=1;strokeColor=none;fillColor=none;align=center;verticalAlign=middle;whiteSpace=wrap;rounded=0;" vertex="1" parent="1">
          <mxGeometry x="280" y="200" width="60" height="30" as="geometry" />
        </mxCell>
        <mxCell id="_33wSnnd3f7Oau2HynZq-11" value="" style="endArrow=classic;html=1;rounded=0;exitX=0.5;exitY=1;exitDx=0;exitDy=0;entryX=0;entryY=0;entryDx=0;entryDy=0;" edge="1" parent="1" source="_33wSnnd3f7Oau2HynZq-4" target="_33wSnnd3f7Oau2HynZq-10">
          <mxGeometry width="50" height="50" relative="1" as="geometry">
            <mxPoint x="290" y="200" as="sourcePoint" />
            <mxPoint x="340" y="150" as="targetPoint" />
          </mxGeometry>
        </mxCell>
        <mxCell id="_33wSnnd3f7Oau2HynZq-12" value="" style="rounded=0;whiteSpace=wrap;html=1;shadow=0;" vertex="1" parent="1">
          <mxGeometry x="430" y="30" width="160" height="120" as="geometry" />
        </mxCell>
        <mxCell id="_33wSnnd3f7Oau2HynZq-13" value="" style="endArrow=classic;html=1;rounded=0;entryX=0;entryY=0.5;entryDx=0;entryDy=0;" edge="1" parent="1" source="_33wSnnd3f7Oau2HynZq-1" target="_33wSnnd3f7Oau2HynZq-12">
          <mxGeometry width="50" height="50" relative="1" as="geometry">
            <mxPoint x="430" y="180" as="sourcePoint" />
            <mxPoint x="480" y="130" as="targetPoint" />
          </mxGeometry>
        </mxCell>
        <mxCell id="_33wSnnd3f7Oau2HynZq-14" value="New Booking&amp;nbsp;" style="rounded=0;html=1;labelBorderColor=#ff0000;labelBackgroundColor=#FF66FF;" vertex="1" parent="1">
          <mxGeometry x="500" y="40" width="80" height="20" as="geometry" />
        </mxCell>
        <mxCell id="_33wSnnd3f7Oau2HynZq-15" value="Current booking:" style="text;html=1;strokeColor=none;fillColor=none;align=center;verticalAlign=middle;whiteSpace=wrap;rounded=0;" vertex="1" parent="1">
          <mxGeometry x="430" y="35" width="60" height="30" as="geometry" />
        </mxCell>
        <mxCell id="_33wSnnd3f7Oau2HynZq-16" value="-&lt;br&gt;-&lt;br&gt;-&lt;br&gt;-&lt;br&gt;-" style="text;html=1;strokeColor=none;fillColor=none;align=center;verticalAlign=middle;whiteSpace=wrap;rounded=0;" vertex="1" parent="1">
          <mxGeometry x="420" y="90" width="60" height="30" as="geometry" />
        </mxCell>
        <mxCell id="_33wSnnd3f7Oau2HynZq-17" value="No current Booking...&lt;br&gt;" style="text;html=1;strokeColor=none;fillColor=none;align=center;verticalAlign=middle;rounded=0;fontSize=7;" vertex="1" parent="1">
          <mxGeometry x="460" y="60" width="60" height="30" as="geometry" />
        </mxCell>
        <mxCell id="_33wSnnd3f7Oau2HynZq-18" value="" style="endArrow=classic;html=1;rounded=0;exitX=1;exitY=0.5;exitDx=0;exitDy=0;" edge="1" parent="1" source="_33wSnnd3f7Oau2HynZq-14">
          <mxGeometry width="50" height="50" relative="1" as="geometry">
            <mxPoint x="610" y="140" as="sourcePoint" />
            <mxPoint x="630" y="50" as="targetPoint" />
          </mxGeometry>
        </mxCell>
        <mxCell id="_33wSnnd3f7Oau2HynZq-19" value="" style="rounded=0;whiteSpace=wrap;html=1;shadow=0;" vertex="1" parent="1">
          <mxGeometry x="630" y="30" width="160" height="120" as="geometry" />
        </mxCell>
        <mxCell id="_33wSnnd3f7Oau2HynZq-20" value="Select Park" style="rounded=0;whiteSpace=wrap;html=1;align=left;" vertex="1" parent="1">
          <mxGeometry x="665" y="80" width="90" height="20" as="geometry" />
        </mxCell>
        <mxCell id="_33wSnnd3f7Oau2HynZq-21" value="" style="rounded=0;whiteSpace=wrap;html=1;" vertex="1" parent="1">
          <mxGeometry x="735" y="80" width="20" height="20" as="geometry" />
        </mxCell>
        <mxCell id="_33wSnnd3f7Oau2HynZq-22" value="" style="html=1;shadow=0;dashed=0;align=center;verticalAlign=middle;shape=mxgraph.arrows2.arrow;dy=0.6;dx=40;direction=south;notch=0;" vertex="1" parent="1">
          <mxGeometry x="737.5" y="85" width="15" height="10" as="geometry" />
        </mxCell>
        <mxCell id="_33wSnnd3f7Oau2HynZq-28" value="" style="endArrow=classic;html=1;rounded=0;exitX=0.5;exitY=1;exitDx=0;exitDy=0;entryX=0.5;entryY=0;entryDx=0;entryDy=0;" edge="1" parent="1" source="_33wSnnd3f7Oau2HynZq-19">
          <mxGeometry width="50" height="50" relative="1" as="geometry">
            <mxPoint x="650" y="210" as="sourcePoint" />
            <mxPoint x="710" y="190" as="targetPoint" />
          </mxGeometry>
        </mxCell>
        <mxCell id="_33wSnnd3f7Oau2HynZq-29" value="" style="endArrow=classic;html=1;rounded=0;exitX=0.5;exitY=1;exitDx=0;exitDy=0;" edge="1" parent="1">
          <mxGeometry width="50" height="50" relative="1" as="geometry">
            <mxPoint x="710" y="310" as="sourcePoint" />
            <mxPoint x="710" y="350" as="targetPoint" />
          </mxGeometry>
        </mxCell>
        <mxCell id="_33wSnnd3f7Oau2HynZq-30" value="" style="rounded=0;whiteSpace=wrap;html=1;shadow=0;" vertex="1" parent="1">
          <mxGeometry x="630" y="190" width="160" height="120" as="geometry" />
        </mxCell>
        <mxCell id="_33wSnnd3f7Oau2HynZq-34" value="" style="rounded=0;whiteSpace=wrap;html=1;shadow=0;" vertex="1" parent="1">
          <mxGeometry x="430" y="190" width="160" height="120" as="geometry" />
        </mxCell>
        <mxCell id="_33wSnnd3f7Oau2HynZq-35" value="New Booking&amp;nbsp;" style="rounded=0;html=1;labelBorderColor=#ff0000;labelBackgroundColor=#FF66FF;" vertex="1" parent="1">
          <mxGeometry x="500" y="210" width="80" height="20" as="geometry" />
        </mxCell>
        <mxCell id="_33wSnnd3f7Oau2HynZq-36" value="Current booking:" style="text;html=1;strokeColor=none;fillColor=none;align=center;verticalAlign=middle;whiteSpace=wrap;rounded=0;" vertex="1" parent="1">
          <mxGeometry x="430" y="205" width="60" height="30" as="geometry" />
        </mxCell>
        <mxCell id="_33wSnnd3f7Oau2HynZq-37" value="No current Booking...&lt;br&gt;" style="text;html=1;strokeColor=none;fillColor=none;align=center;verticalAlign=middle;rounded=0;fontSize=7;" vertex="1" parent="1">
          <mxGeometry x="460" y="230" width="60" height="30" as="geometry" />
        </mxCell>
        <mxCell id="_33wSnnd3f7Oau2HynZq-38" value="Travel Order" style="rounded=0;html=1;labelBorderColor=#ff0000;labelBackgroundColor=#FF66FF;" vertex="1" parent="1">
          <mxGeometry x="500" y="260" width="80" height="20" as="geometry" />
        </mxCell>
        <mxCell id="_33wSnnd3f7Oau2HynZq-41" value="" style="endArrow=classic;html=1;rounded=0;exitX=1;exitY=1;exitDx=0;exitDy=0;entryX=0;entryY=0;entryDx=0;entryDy=0;" edge="1" parent="1" source="_33wSnnd3f7Oau2HynZq-1" target="_33wSnnd3f7Oau2HynZq-34">
          <mxGeometry relative="1" as="geometry">
            <mxPoint x="370" y="120" as="sourcePoint" />
            <mxPoint x="470" y="120" as="targetPoint" />
          </mxGeometry>
        </mxCell>
        <mxCell id="_33wSnnd3f7Oau2HynZq-42" value="Travel Guide" style="edgeLabel;resizable=0;html=1;align=center;verticalAlign=middle;" connectable="0" vertex="1" parent="_33wSnnd3f7Oau2HynZq-41">
          <mxGeometry relative="1" as="geometry">
            <mxPoint x="40" as="offset" />
          </mxGeometry>
        </mxCell>
        <mxCell id="_33wSnnd3f7Oau2HynZq-43" value="Login" style="rounded=1;whiteSpace=wrap;html=1;" vertex="1" parent="1">
          <mxGeometry x="340" y="110" width="40" height="20" as="geometry" />
        </mxCell>
        <mxCell id="_33wSnnd3f7Oau2HynZq-44" value="Login" style="rounded=1;whiteSpace=wrap;html=1;" vertex="1" parent="1">
          <mxGeometry x="340" y="280" width="40" height="20" as="geometry" />
        </mxCell>
        <mxCell id="_33wSnnd3f7Oau2HynZq-45" value="Login" style="rounded=1;whiteSpace=wrap;html=1;" vertex="1" parent="1">
          <mxGeometry x="340" y="280" width="40" height="20" as="geometry" />
        </mxCell>
        <mxCell id="_33wSnnd3f7Oau2HynZq-48" value="" style="rounded=0;whiteSpace=wrap;html=1;" vertex="1" parent="1">
          <mxGeometry x="230" y="350" width="160" height="110" as="geometry" />
        </mxCell>
        <mxCell id="_33wSnnd3f7Oau2HynZq-50" value="&lt;span style=&quot;background-color: rgb(255, 153, 255);&quot;&gt;welcome&lt;br&gt;worker&lt;br&gt;&lt;br&gt;&lt;/span&gt;" style="text;html=1;strokeColor=none;fillColor=none;align=center;verticalAlign=middle;whiteSpace=wrap;rounded=0;" vertex="1" parent="1">
          <mxGeometry x="280" y="360" width="60" height="30" as="geometry" />
        </mxCell>
        <mxCell id="_33wSnnd3f7Oau2HynZq-51" value="" style="rounded=0;whiteSpace=wrap;html=1;" vertex="1" parent="1">
          <mxGeometry x="60" y="350" width="160" height="110" as="geometry" />
        </mxCell>
        <mxCell id="_33wSnnd3f7Oau2HynZq-53" value="" style="rounded=0;whiteSpace=wrap;html=1;" vertex="1" parent="1">
          <mxGeometry x="400" y="350" width="160" height="110" as="geometry" />
        </mxCell>
        <mxCell id="_33wSnnd3f7Oau2HynZq-54" value="&lt;span style=&quot;background-color: rgb(255, 153, 255);&quot;&gt;welcome&lt;br&gt;Departmant manager&lt;br&gt;&lt;br&gt;&lt;/span&gt;" style="text;html=1;strokeColor=none;fillColor=none;align=center;verticalAlign=middle;rounded=0;" vertex="1" parent="1">
          <mxGeometry x="100" y="360" width="70" height="30" as="geometry" />
        </mxCell>
        <mxCell id="_33wSnnd3f7Oau2HynZq-56" value="&lt;span style=&quot;background-color: rgb(255, 153, 255);&quot;&gt;welcome&lt;br&gt;Park&amp;nbsp;manager&lt;br&gt;&lt;br&gt;&lt;/span&gt;" style="text;html=1;strokeColor=none;fillColor=none;align=center;verticalAlign=middle;rounded=0;" vertex="1" parent="1">
          <mxGeometry x="445" y="360" width="70" height="30" as="geometry" />
        </mxCell>
        <mxCell id="_33wSnnd3f7Oau2HynZq-59" value="" style="endArrow=classic;html=1;rounded=0;exitX=0;exitY=1;exitDx=0;exitDy=0;entryX=0.5;entryY=0;entryDx=0;entryDy=0;" edge="1" parent="1" source="_33wSnnd3f7Oau2HynZq-45" target="_33wSnnd3f7Oau2HynZq-51">
          <mxGeometry width="50" height="50" relative="1" as="geometry">
            <mxPoint x="30" y="370" as="sourcePoint" />
            <mxPoint x="80" y="320" as="targetPoint" />
          </mxGeometry>
        </mxCell>
        <mxCell id="_33wSnnd3f7Oau2HynZq-60" value="" style="endArrow=classic;html=1;rounded=0;exitX=0.5;exitY=1;exitDx=0;exitDy=0;entryX=0.5;entryY=0;entryDx=0;entryDy=0;" edge="1" parent="1" source="_33wSnnd3f7Oau2HynZq-45">
          <mxGeometry width="50" height="50" relative="1" as="geometry">
            <mxPoint x="515" y="300" as="sourcePoint" />
            <mxPoint x="315" y="350" as="targetPoint" />
          </mxGeometry>
        </mxCell>
        <mxCell id="_33wSnnd3f7Oau2HynZq-61" value="" style="endArrow=classic;html=1;rounded=0;exitX=1;exitY=1;exitDx=0;exitDy=0;entryX=0.5;entryY=0;entryDx=0;entryDy=0;" edge="1" parent="1" source="_33wSnnd3f7Oau2HynZq-45">
          <mxGeometry width="50" height="50" relative="1" as="geometry">
            <mxPoint x="520" y="300" as="sourcePoint" />
            <mxPoint x="475" y="350" as="targetPoint" />
          </mxGeometry>
        </mxCell>
        <mxCell id="_33wSnnd3f7Oau2HynZq-62" value="Park capacity: 87/100" style="text;html=1;strokeColor=none;fillColor=none;align=center;verticalAlign=middle;rounded=0;fontSize=6;labelBackgroundColor=#B3B3B3;" vertex="1" parent="1">
          <mxGeometry x="230" y="380" width="80" height="30" as="geometry" />
        </mxCell>
        <mxCell id="_33wSnnd3f7Oau2HynZq-63" value="User id:" style="text;html=1;strokeColor=none;fillColor=none;align=center;verticalAlign=middle;whiteSpace=wrap;rounded=0;fontSize=7;" vertex="1" parent="1">
          <mxGeometry x="225" y="400" width="60" height="30" as="geometry" />
        </mxCell>
        <mxCell id="_33wSnnd3f7Oau2HynZq-64" value="" style="rounded=0;whiteSpace=wrap;html=1;" vertex="1" parent="1">
          <mxGeometry x="270" y="410" width="30" height="10" as="geometry" />
        </mxCell>
        <mxCell id="_33wSnnd3f7Oau2HynZq-65" value="Print recipt&lt;br style=&quot;font-size: 3px;&quot;&gt;" style="rounded=1;html=1;fontSize=3;align=center;labelBorderColor=none;fillColor=#d5e8d4;strokeColor=#82b366;" vertex="1" parent="1">
          <mxGeometry x="245" y="430" width="20" height="10" as="geometry" />
        </mxCell>
        <mxCell id="_33wSnnd3f7Oau2HynZq-69" value="Park capacity: 87/100" style="text;html=1;strokeColor=none;fillColor=none;align=center;verticalAlign=middle;rounded=0;fontSize=6;labelBackgroundColor=#B3B3B3;" vertex="1" parent="1">
          <mxGeometry x="65" y="380" width="80" height="30" as="geometry" />
        </mxCell>
        <mxCell id="_33wSnnd3f7Oau2HynZq-70" value="User id:" style="text;html=1;strokeColor=none;fillColor=none;align=center;verticalAlign=middle;whiteSpace=wrap;rounded=0;fontSize=7;" vertex="1" parent="1">
          <mxGeometry x="60" y="400" width="60" height="30" as="geometry" />
        </mxCell>
        <mxCell id="_33wSnnd3f7Oau2HynZq-71" value="Print recipt&lt;br style=&quot;font-size: 3px;&quot;&gt;" style="rounded=1;html=1;fontSize=3;align=center;labelBorderColor=none;fillColor=#d5e8d4;strokeColor=#82b366;" vertex="1" parent="1">
          <mxGeometry x="80" y="430" width="20" height="10" as="geometry" />
        </mxCell>
        <mxCell id="_33wSnnd3f7Oau2HynZq-72" value="" style="rounded=0;whiteSpace=wrap;html=1;" vertex="1" parent="1">
          <mxGeometry x="105" y="410" width="30" height="10" as="geometry" />
        </mxCell>
        <mxCell id="_33wSnnd3f7Oau2HynZq-73" value="Print recipt&lt;br style=&quot;font-size: 3px;&quot;&gt;" style="rounded=1;html=1;fontSize=3;align=center;labelBorderColor=none;fillColor=#d5e8d4;strokeColor=#82b366;" vertex="1" parent="1">
          <mxGeometry x="420" y="435" width="20" height="10" as="geometry" />
        </mxCell>
        <mxCell id="_33wSnnd3f7Oau2HynZq-74" value="User id:" style="text;html=1;strokeColor=none;fillColor=none;align=center;verticalAlign=middle;whiteSpace=wrap;rounded=0;fontSize=7;" vertex="1" parent="1">
          <mxGeometry x="400" y="405" width="60" height="30" as="geometry" />
        </mxCell>
        <mxCell id="_33wSnnd3f7Oau2HynZq-75" value="" style="rounded=0;whiteSpace=wrap;html=1;" vertex="1" parent="1">
          <mxGeometry x="445" y="415" width="30" height="10" as="geometry" />
        </mxCell>
        <mxCell id="_33wSnnd3f7Oau2HynZq-76" value="Park capacity: 87/100" style="text;html=1;strokeColor=none;fillColor=none;align=center;verticalAlign=middle;rounded=0;fontSize=6;labelBackgroundColor=#B3B3B3;" vertex="1" parent="1">
          <mxGeometry x="405" y="385" width="80" height="30" as="geometry" />
        </mxCell>
        <mxCell id="_33wSnnd3f7Oau2HynZq-81" value="Total park&#39;s visitor Report" style="rounded=1;whiteSpace=wrap;html=1;fontSize=4;fillColor=#ffe6cc;strokeColor=#d79b00;" vertex="1" parent="1">
          <mxGeometry x="500" y="395" width="50" height="10" as="geometry" />
        </mxCell>
        <mxCell id="_33wSnnd3f7Oau2HynZq-82" value="Usage Report" style="rounded=1;whiteSpace=wrap;html=1;fontSize=4;fillColor=#ffe6cc;strokeColor=#d79b00;" vertex="1" parent="1">
          <mxGeometry x="500" y="415" width="50" height="10" as="geometry" />
        </mxCell>
        <mxCell id="_33wSnnd3f7Oau2HynZq-85" value="Cancellation Report" style="rounded=1;whiteSpace=wrap;html=1;fontSize=4;fillColor=#ffe6cc;strokeColor=#d79b00;" vertex="1" parent="1">
          <mxGeometry x="160" y="415" width="50" height="10" as="geometry" />
        </mxCell>
        <mxCell id="_33wSnnd3f7Oau2HynZq-86" value="Visits Report" style="rounded=1;whiteSpace=wrap;html=1;fontSize=4;fillColor=#ffe6cc;strokeColor=#d79b00;" vertex="1" parent="1">
          <mxGeometry x="160" y="395" width="50" height="10" as="geometry" />
        </mxCell>
        <mxCell id="_33wSnnd3f7Oau2HynZq-87" value="Booking" style="verticalLabelPosition=middle;verticalAlign=middle;html=1;shape=mxgraph.basic.banner;horizontal=1;align=center;labelPosition=center;fontSize=11;fontColor=#25091d;labelBackgroundColor=#D94ABE;fillColor=#D94ABE;" vertex="1" parent="1">
          <mxGeometry x="640" y="35" width="140" height="25" as="geometry" />
        </mxCell>
        <mxCell id="_33wSnnd3f7Oau2HynZq-102" value="" style="rounded=0;whiteSpace=wrap;html=1;shadow=0;" vertex="1" parent="1">
          <mxGeometry x="630" y="350" width="160" height="120" as="geometry" />
        </mxCell>
        <mxCell id="_33wSnnd3f7Oau2HynZq-98" value="Booking" style="verticalLabelPosition=middle;verticalAlign=middle;html=1;shape=mxgraph.basic.banner;horizontal=1;align=center;labelPosition=center;fontSize=11;fontColor=#25091d;labelBackgroundColor=#D94ABE;fillColor=#D94ABE;" vertex="1" parent="1">
          <mxGeometry x="640" y="355" width="140" height="25" as="geometry" />
        </mxCell>
        <mxCell id="_33wSnnd3f7Oau2HynZq-103" value="" style="strokeWidth=1;shadow=0;dashed=0;align=center;html=1;shape=mxgraph.mockup.forms.rrect;rSize=5;strokeColor=#999999;fillColor=#ffffff;" vertex="1" parent="1">
          <mxGeometry x="830" y="360" width="150" height="110" as="geometry" />
        </mxCell>
        <mxCell id="_33wSnnd3f7Oau2HynZq-104" value="October 2014" style="strokeWidth=1;shadow=0;dashed=0;align=center;html=1;shape=mxgraph.mockup.forms.anchor;fontColor=#999999;" vertex="1" parent="_33wSnnd3f7Oau2HynZq-103">
          <mxGeometry x="28.125" y="5.0285714285714285" width="93.75" height="12.571428571428573" as="geometry" />
        </mxCell>
        <mxCell id="_33wSnnd3f7Oau2HynZq-105" value="&lt;" style="strokeWidth=1;shadow=0;dashed=0;align=center;html=1;shape=mxgraph.mockup.forms.rrect;rSize=4;strokeColor=#999999;fontColor=#008cff;fontSize=19;fontStyle=1;" vertex="1" parent="_33wSnnd3f7Oau2HynZq-103">
          <mxGeometry x="7.5" y="5.0285714285714285" width="23.4375" height="12.571428571428573" as="geometry" />
        </mxCell>
        <mxCell id="_33wSnnd3f7Oau2HynZq-106" value="&gt;" style="strokeWidth=1;shadow=0;dashed=0;align=center;html=1;shape=mxgraph.mockup.forms.rrect;rSize=4;strokeColor=#999999;fontColor=#008cff;fontSize=19;fontStyle=1;" vertex="1" parent="_33wSnnd3f7Oau2HynZq-103">
          <mxGeometry x="119.0625" y="5.0285714285714285" width="23.4375" height="12.571428571428573" as="geometry" />
        </mxCell>
        <mxCell id="_33wSnnd3f7Oau2HynZq-107" value="Mo" style="strokeWidth=1;shadow=0;dashed=0;align=center;html=1;shape=mxgraph.mockup.forms.anchor;fontColor=#999999;" vertex="1" parent="_33wSnnd3f7Oau2HynZq-103">
          <mxGeometry x="9.375" y="17.599999999999998" width="18.75" height="12.571428571428573" as="geometry" />
        </mxCell>
        <mxCell id="_33wSnnd3f7Oau2HynZq-108" value="Tu" style="strokeWidth=1;shadow=0;dashed=0;align=center;html=1;shape=mxgraph.mockup.forms.anchor;fontColor=#999999;" vertex="1" parent="_33wSnnd3f7Oau2HynZq-103">
          <mxGeometry x="28.125" y="17.599999999999998" width="18.75" height="12.571428571428573" as="geometry" />
        </mxCell>
        <mxCell id="_33wSnnd3f7Oau2HynZq-109" value="We" style="strokeWidth=1;shadow=0;dashed=0;align=center;html=1;shape=mxgraph.mockup.forms.anchor;fontColor=#999999;" vertex="1" parent="_33wSnnd3f7Oau2HynZq-103">
          <mxGeometry x="46.875" y="17.599999999999998" width="18.75" height="12.571428571428573" as="geometry" />
        </mxCell>
        <mxCell id="_33wSnnd3f7Oau2HynZq-110" value="Th" style="strokeWidth=1;shadow=0;dashed=0;align=center;html=1;shape=mxgraph.mockup.forms.anchor;fontColor=#999999;" vertex="1" parent="_33wSnnd3f7Oau2HynZq-103">
          <mxGeometry x="65.62499999999999" y="17.599999999999998" width="18.75" height="12.571428571428573" as="geometry" />
        </mxCell>
        <mxCell id="_33wSnnd3f7Oau2HynZq-111" value="Fr" style="strokeWidth=1;shadow=0;dashed=0;align=center;html=1;shape=mxgraph.mockup.forms.anchor;fontColor=#999999;" vertex="1" parent="_33wSnnd3f7Oau2HynZq-103">
          <mxGeometry x="84.375" y="17.599999999999998" width="18.75" height="12.571428571428573" as="geometry" />
        </mxCell>
        <mxCell id="_33wSnnd3f7Oau2HynZq-112" value="Sa" style="strokeWidth=1;shadow=0;dashed=0;align=center;html=1;shape=mxgraph.mockup.forms.anchor;fontColor=#999999;" vertex="1" parent="_33wSnnd3f7Oau2HynZq-103">
          <mxGeometry x="103.125" y="17.599999999999998" width="18.75" height="12.571428571428573" as="geometry" />
        </mxCell>
        <mxCell id="_33wSnnd3f7Oau2HynZq-113" value="Su" style="strokeWidth=1;shadow=0;dashed=0;align=center;html=1;shape=mxgraph.mockup.forms.anchor;fontColor=#999999;" vertex="1" parent="_33wSnnd3f7Oau2HynZq-103">
          <mxGeometry x="121.87499999999997" y="17.599999999999998" width="18.75" height="12.571428571428573" as="geometry" />
        </mxCell>
        <mxCell id="_33wSnnd3f7Oau2HynZq-114" value="1" style="strokeWidth=1;shadow=0;dashed=0;align=center;html=1;shape=mxgraph.mockup.forms.rrect;rSize=0;strokeColor=#999999;fontColor=#999999;" vertex="1" parent="_33wSnnd3f7Oau2HynZq-103">
          <mxGeometry x="9.375" y="30.171428571428564" width="18.75" height="12.571428571428573" as="geometry" />
        </mxCell>
        <mxCell id="_33wSnnd3f7Oau2HynZq-115" value="2" style="strokeWidth=1;shadow=0;dashed=0;align=center;html=1;shape=mxgraph.mockup.forms.rrect;rSize=0;strokeColor=#999999;fontColor=#999999;" vertex="1" parent="_33wSnnd3f7Oau2HynZq-103">
          <mxGeometry x="28.125" y="30.171428571428564" width="18.75" height="12.571428571428573" as="geometry" />
        </mxCell>
        <mxCell id="_33wSnnd3f7Oau2HynZq-116" value="3" style="strokeWidth=1;shadow=0;dashed=0;align=center;html=1;shape=mxgraph.mockup.forms.rrect;rSize=0;strokeColor=#999999;fontColor=#999999;" vertex="1" parent="_33wSnnd3f7Oau2HynZq-103">
          <mxGeometry x="46.875" y="30.171428571428564" width="18.75" height="12.571428571428573" as="geometry" />
        </mxCell>
        <mxCell id="_33wSnnd3f7Oau2HynZq-117" value="4" style="strokeWidth=1;shadow=0;dashed=0;align=center;html=1;shape=mxgraph.mockup.forms.rrect;rSize=0;strokeColor=#999999;fontColor=#999999;" vertex="1" parent="_33wSnnd3f7Oau2HynZq-103">
          <mxGeometry x="65.62499999999999" y="30.171428571428564" width="18.75" height="12.571428571428573" as="geometry" />
        </mxCell>
        <mxCell id="_33wSnnd3f7Oau2HynZq-118" value="5" style="strokeWidth=1;shadow=0;dashed=0;align=center;html=1;shape=mxgraph.mockup.forms.rrect;rSize=0;strokeColor=#999999;fontColor=#999999;" vertex="1" parent="_33wSnnd3f7Oau2HynZq-103">
          <mxGeometry x="84.375" y="30.171428571428564" width="18.75" height="12.571428571428573" as="geometry" />
        </mxCell>
        <mxCell id="_33wSnnd3f7Oau2HynZq-119" value="6" style="strokeWidth=1;shadow=0;dashed=0;align=center;html=1;shape=mxgraph.mockup.forms.rrect;rSize=0;strokeColor=#999999;fontColor=#999999;" vertex="1" parent="_33wSnnd3f7Oau2HynZq-103">
          <mxGeometry x="103.125" y="30.171428571428564" width="18.75" height="12.571428571428573" as="geometry" />
        </mxCell>
        <mxCell id="_33wSnnd3f7Oau2HynZq-120" value="7" style="strokeWidth=1;shadow=0;dashed=0;align=center;html=1;shape=mxgraph.mockup.forms.rrect;rSize=0;strokeColor=#999999;fontColor=#999999;" vertex="1" parent="_33wSnnd3f7Oau2HynZq-103">
          <mxGeometry x="121.87499999999997" y="30.171428571428564" width="18.75" height="12.571428571428573" as="geometry" />
        </mxCell>
        <mxCell id="_33wSnnd3f7Oau2HynZq-121" value="8" style="strokeWidth=1;shadow=0;dashed=0;align=center;html=1;shape=mxgraph.mockup.forms.rrect;rSize=0;strokeColor=#999999;fontColor=#999999;" vertex="1" parent="_33wSnnd3f7Oau2HynZq-103">
          <mxGeometry x="9.375" y="42.74285714285713" width="18.75" height="12.571428571428573" as="geometry" />
        </mxCell>
        <mxCell id="_33wSnnd3f7Oau2HynZq-122" value="9" style="strokeWidth=1;shadow=0;dashed=0;align=center;html=1;shape=mxgraph.mockup.forms.rrect;rSize=0;strokeColor=#999999;fontColor=#999999;" vertex="1" parent="_33wSnnd3f7Oau2HynZq-103">
          <mxGeometry x="28.125" y="42.74285714285713" width="18.75" height="12.571428571428573" as="geometry" />
        </mxCell>
        <mxCell id="_33wSnnd3f7Oau2HynZq-123" value="10" style="strokeWidth=1;shadow=0;dashed=0;align=center;html=1;shape=mxgraph.mockup.forms.rrect;rSize=0;strokeColor=#999999;fontColor=#999999;" vertex="1" parent="_33wSnnd3f7Oau2HynZq-103">
          <mxGeometry x="46.875" y="42.74285714285713" width="18.75" height="12.571428571428573" as="geometry" />
        </mxCell>
        <mxCell id="_33wSnnd3f7Oau2HynZq-124" value="11" style="strokeWidth=1;shadow=0;dashed=0;align=center;html=1;shape=mxgraph.mockup.forms.rrect;rSize=0;strokeColor=#999999;fontColor=#999999;" vertex="1" parent="_33wSnnd3f7Oau2HynZq-103">
          <mxGeometry x="65.62499999999999" y="42.74285714285713" width="18.75" height="12.571428571428573" as="geometry" />
        </mxCell>
        <mxCell id="_33wSnnd3f7Oau2HynZq-125" value="12" style="strokeWidth=1;shadow=0;dashed=0;align=center;html=1;shape=mxgraph.mockup.forms.rrect;rSize=0;strokeColor=#999999;fontColor=#999999;" vertex="1" parent="_33wSnnd3f7Oau2HynZq-103">
          <mxGeometry x="84.375" y="42.74285714285713" width="18.75" height="12.571428571428573" as="geometry" />
        </mxCell>
        <mxCell id="_33wSnnd3f7Oau2HynZq-126" value="13" style="strokeWidth=1;shadow=0;dashed=0;align=center;html=1;shape=mxgraph.mockup.forms.rrect;rSize=0;strokeColor=#999999;fontColor=#999999;" vertex="1" parent="_33wSnnd3f7Oau2HynZq-103">
          <mxGeometry x="103.125" y="42.74285714285713" width="18.75" height="12.571428571428573" as="geometry" />
        </mxCell>
        <mxCell id="_33wSnnd3f7Oau2HynZq-127" value="14" style="strokeWidth=1;shadow=0;dashed=0;align=center;html=1;shape=mxgraph.mockup.forms.rrect;rSize=0;strokeColor=#999999;fontColor=#999999;" vertex="1" parent="_33wSnnd3f7Oau2HynZq-103">
          <mxGeometry x="121.87499999999997" y="42.74285714285713" width="18.75" height="12.571428571428573" as="geometry" />
        </mxCell>
        <mxCell id="_33wSnnd3f7Oau2HynZq-128" value="15" style="strokeWidth=1;shadow=0;dashed=0;align=center;html=1;shape=mxgraph.mockup.forms.rrect;rSize=0;strokeColor=#999999;fontColor=#999999;" vertex="1" parent="_33wSnnd3f7Oau2HynZq-103">
          <mxGeometry x="9.375" y="55.3142857142857" width="18.75" height="12.571428571428573" as="geometry" />
        </mxCell>
        <mxCell id="_33wSnnd3f7Oau2HynZq-129" value="16" style="strokeWidth=1;shadow=0;dashed=0;align=center;html=1;shape=mxgraph.mockup.forms.rrect;rSize=0;strokeColor=#999999;fontColor=#999999;" vertex="1" parent="_33wSnnd3f7Oau2HynZq-103">
          <mxGeometry x="28.125" y="55.3142857142857" width="18.75" height="12.571428571428573" as="geometry" />
        </mxCell>
        <mxCell id="_33wSnnd3f7Oau2HynZq-130" value="17" style="strokeWidth=1;shadow=0;dashed=0;align=center;html=1;shape=mxgraph.mockup.forms.rrect;rSize=0;strokeColor=#999999;fontColor=#999999;" vertex="1" parent="_33wSnnd3f7Oau2HynZq-103">
          <mxGeometry x="46.875" y="55.3142857142857" width="18.75" height="12.571428571428573" as="geometry" />
        </mxCell>
        <mxCell id="_33wSnnd3f7Oau2HynZq-131" value="18" style="strokeWidth=1;shadow=0;dashed=0;align=center;html=1;shape=mxgraph.mockup.forms.rrect;rSize=0;strokeColor=#999999;fontColor=#999999;" vertex="1" parent="_33wSnnd3f7Oau2HynZq-103">
          <mxGeometry x="65.62499999999999" y="55.3142857142857" width="18.75" height="12.571428571428573" as="geometry" />
        </mxCell>
        <mxCell id="_33wSnnd3f7Oau2HynZq-132" value="19" style="strokeWidth=1;shadow=0;dashed=0;align=center;html=1;shape=mxgraph.mockup.forms.rrect;rSize=0;strokeColor=#999999;fontColor=#999999;" vertex="1" parent="_33wSnnd3f7Oau2HynZq-103">
          <mxGeometry x="84.375" y="55.3142857142857" width="18.75" height="12.571428571428573" as="geometry" />
        </mxCell>
        <mxCell id="_33wSnnd3f7Oau2HynZq-133" value="20" style="strokeWidth=1;shadow=0;dashed=0;align=center;html=1;shape=mxgraph.mockup.forms.rrect;rSize=0;strokeColor=#999999;fontColor=#999999;" vertex="1" parent="_33wSnnd3f7Oau2HynZq-103">
          <mxGeometry x="103.125" y="55.3142857142857" width="18.75" height="12.571428571428573" as="geometry" />
        </mxCell>
        <mxCell id="_33wSnnd3f7Oau2HynZq-134" value="21" style="strokeWidth=1;shadow=0;dashed=0;align=center;html=1;shape=mxgraph.mockup.forms.rrect;rSize=0;strokeColor=#999999;fontColor=#999999;" vertex="1" parent="_33wSnnd3f7Oau2HynZq-103">
          <mxGeometry x="121.87499999999997" y="55.3142857142857" width="18.75" height="12.571428571428573" as="geometry" />
        </mxCell>
        <mxCell id="_33wSnnd3f7Oau2HynZq-135" value="22" style="strokeWidth=1;shadow=0;dashed=0;align=center;html=1;shape=mxgraph.mockup.forms.rrect;rSize=0;strokeColor=#999999;fontColor=#999999;" vertex="1" parent="_33wSnnd3f7Oau2HynZq-103">
          <mxGeometry x="9.375" y="67.88571428571429" width="18.75" height="12.571428571428573" as="geometry" />
        </mxCell>
        <mxCell id="_33wSnnd3f7Oau2HynZq-136" value="23" style="strokeWidth=1;shadow=0;dashed=0;align=center;html=1;shape=mxgraph.mockup.forms.rrect;rSize=0;strokeColor=#999999;fontColor=#999999;" vertex="1" parent="_33wSnnd3f7Oau2HynZq-103">
          <mxGeometry x="28.125" y="67.88571428571429" width="18.75" height="12.571428571428573" as="geometry" />
        </mxCell>
        <mxCell id="_33wSnnd3f7Oau2HynZq-137" value="25" style="strokeWidth=1;shadow=0;dashed=0;align=center;html=1;shape=mxgraph.mockup.forms.rrect;rSize=0;strokeColor=#999999;fontColor=#999999;" vertex="1" parent="_33wSnnd3f7Oau2HynZq-103">
          <mxGeometry x="65.62499999999999" y="67.88571428571429" width="18.75" height="12.571428571428573" as="geometry" />
        </mxCell>
        <mxCell id="_33wSnnd3f7Oau2HynZq-138" value="26" style="strokeWidth=1;shadow=0;dashed=0;align=center;html=1;shape=mxgraph.mockup.forms.rrect;rSize=0;strokeColor=#999999;fontColor=#999999;" vertex="1" parent="_33wSnnd3f7Oau2HynZq-103">
          <mxGeometry x="84.375" y="67.88571428571429" width="18.75" height="12.571428571428573" as="geometry" />
        </mxCell>
        <mxCell id="_33wSnnd3f7Oau2HynZq-139" value="27" style="strokeWidth=1;shadow=0;dashed=0;align=center;html=1;shape=mxgraph.mockup.forms.rrect;rSize=0;strokeColor=#999999;fontColor=#999999;" vertex="1" parent="_33wSnnd3f7Oau2HynZq-103">
          <mxGeometry x="103.125" y="67.88571428571429" width="18.75" height="12.571428571428573" as="geometry" />
        </mxCell>
        <mxCell id="_33wSnnd3f7Oau2HynZq-140" value="28" style="strokeWidth=1;shadow=0;dashed=0;align=center;html=1;shape=mxgraph.mockup.forms.rrect;rSize=0;strokeColor=#999999;fontColor=#999999;" vertex="1" parent="_33wSnnd3f7Oau2HynZq-103">
          <mxGeometry x="121.87499999999997" y="67.88571428571429" width="18.75" height="12.571428571428573" as="geometry" />
        </mxCell>
        <mxCell id="_33wSnnd3f7Oau2HynZq-141" value="29" style="strokeWidth=1;shadow=0;dashed=0;align=center;html=1;shape=mxgraph.mockup.forms.rrect;rSize=0;strokeColor=#999999;fontColor=#999999;" vertex="1" parent="_33wSnnd3f7Oau2HynZq-103">
          <mxGeometry x="9.375" y="80.45714285714286" width="18.75" height="12.571428571428573" as="geometry" />
        </mxCell>
        <mxCell id="_33wSnnd3f7Oau2HynZq-142" value="30" style="strokeWidth=1;shadow=0;dashed=0;align=center;html=1;shape=mxgraph.mockup.forms.rrect;rSize=0;strokeColor=#999999;fontColor=#999999;" vertex="1" parent="_33wSnnd3f7Oau2HynZq-103">
          <mxGeometry x="28.125" y="80.45714285714286" width="18.75" height="12.571428571428573" as="geometry" />
        </mxCell>
        <mxCell id="_33wSnnd3f7Oau2HynZq-143" value="31" style="strokeWidth=1;shadow=0;dashed=0;align=center;html=1;shape=mxgraph.mockup.forms.rrect;rSize=0;strokeColor=#999999;fontColor=#999999;" vertex="1" parent="_33wSnnd3f7Oau2HynZq-103">
          <mxGeometry x="46.875" y="80.45714285714286" width="18.75" height="12.571428571428573" as="geometry" />
        </mxCell>
        <mxCell id="_33wSnnd3f7Oau2HynZq-144" value="1" style="strokeWidth=1;shadow=0;dashed=0;align=center;html=1;shape=mxgraph.mockup.forms.rrect;rSize=0;strokeColor=#999999;fontColor=#999999;fillColor=#ddeeff;" vertex="1" parent="_33wSnnd3f7Oau2HynZq-103">
          <mxGeometry x="65.62499999999999" y="80.45714285714286" width="18.75" height="12.571428571428573" as="geometry" />
        </mxCell>
        <mxCell id="_33wSnnd3f7Oau2HynZq-145" value="2" style="strokeWidth=1;shadow=0;dashed=0;align=center;html=1;shape=mxgraph.mockup.forms.rrect;rSize=0;strokeColor=#999999;fontColor=#999999;fillColor=#ddeeff;" vertex="1" parent="_33wSnnd3f7Oau2HynZq-103">
          <mxGeometry x="84.375" y="80.45714285714286" width="18.75" height="12.571428571428573" as="geometry" />
        </mxCell>
        <mxCell id="_33wSnnd3f7Oau2HynZq-146" value="3" style="strokeWidth=1;shadow=0;dashed=0;align=center;html=1;shape=mxgraph.mockup.forms.rrect;rSize=0;strokeColor=#999999;fontColor=#999999;fillColor=#ddeeff;" vertex="1" parent="_33wSnnd3f7Oau2HynZq-103">
          <mxGeometry x="103.125" y="80.45714285714286" width="18.75" height="12.571428571428573" as="geometry" />
        </mxCell>
        <mxCell id="_33wSnnd3f7Oau2HynZq-147" value="4" style="strokeWidth=1;shadow=0;dashed=0;align=center;html=1;shape=mxgraph.mockup.forms.rrect;rSize=0;strokeColor=#999999;fontColor=#999999;fillColor=#ddeeff;" vertex="1" parent="_33wSnnd3f7Oau2HynZq-103">
          <mxGeometry x="121.87499999999997" y="80.45714285714286" width="18.75" height="12.571428571428573" as="geometry" />
        </mxCell>
        <mxCell id="_33wSnnd3f7Oau2HynZq-148" value="5" style="strokeWidth=1;shadow=0;dashed=0;align=center;html=1;shape=mxgraph.mockup.forms.rrect;rSize=0;strokeColor=#999999;fontColor=#999999;fillColor=#ddeeff;" vertex="1" parent="_33wSnnd3f7Oau2HynZq-103">
          <mxGeometry x="9.375" y="93.02857142857144" width="18.75" height="12.571428571428573" as="geometry" />
        </mxCell>
        <mxCell id="_33wSnnd3f7Oau2HynZq-149" value="6" style="strokeWidth=1;shadow=0;dashed=0;align=center;html=1;shape=mxgraph.mockup.forms.rrect;rSize=0;strokeColor=#999999;fontColor=#999999;fillColor=#ddeeff;" vertex="1" parent="_33wSnnd3f7Oau2HynZq-103">
          <mxGeometry x="28.125" y="93.02857142857144" width="18.75" height="12.571428571428573" as="geometry" />
        </mxCell>
        <mxCell id="_33wSnnd3f7Oau2HynZq-150" value="7" style="strokeWidth=1;shadow=0;dashed=0;align=center;html=1;shape=mxgraph.mockup.forms.rrect;rSize=0;strokeColor=#999999;fontColor=#999999;fillColor=#ddeeff;" vertex="1" parent="_33wSnnd3f7Oau2HynZq-103">
          <mxGeometry x="46.875" y="93.02857142857144" width="18.75" height="12.571428571428573" as="geometry" />
        </mxCell>
        <mxCell id="_33wSnnd3f7Oau2HynZq-151" value="8" style="strokeWidth=1;shadow=0;dashed=0;align=center;html=1;shape=mxgraph.mockup.forms.rrect;rSize=0;strokeColor=#999999;fontColor=#999999;fillColor=#ddeeff;" vertex="1" parent="_33wSnnd3f7Oau2HynZq-103">
          <mxGeometry x="65.62499999999999" y="93.02857142857144" width="18.75" height="12.571428571428573" as="geometry" />
        </mxCell>
        <mxCell id="_33wSnnd3f7Oau2HynZq-152" value="9" style="strokeWidth=1;shadow=0;dashed=0;align=center;html=1;shape=mxgraph.mockup.forms.rrect;rSize=0;strokeColor=#999999;fontColor=#999999;fillColor=#ddeeff;" vertex="1" parent="_33wSnnd3f7Oau2HynZq-103">
          <mxGeometry x="84.375" y="93.02857142857144" width="18.75" height="12.571428571428573" as="geometry" />
        </mxCell>
        <mxCell id="_33wSnnd3f7Oau2HynZq-153" value="10" style="strokeWidth=1;shadow=0;dashed=0;align=center;html=1;shape=mxgraph.mockup.forms.rrect;rSize=0;strokeColor=#999999;fontColor=#999999;fillColor=#ddeeff;" vertex="1" parent="_33wSnnd3f7Oau2HynZq-103">
          <mxGeometry x="103.125" y="93.02857142857144" width="18.75" height="12.571428571428573" as="geometry" />
        </mxCell>
        <mxCell id="_33wSnnd3f7Oau2HynZq-154" value="11" style="strokeWidth=1;shadow=0;dashed=0;align=center;html=1;shape=mxgraph.mockup.forms.rrect;rSize=0;strokeColor=#999999;fontColor=#999999;fillColor=#ddeeff;" vertex="1" parent="_33wSnnd3f7Oau2HynZq-103">
          <mxGeometry x="121.87499999999997" y="93.02857142857144" width="18.75" height="12.571428571428573" as="geometry" />
        </mxCell>
        <mxCell id="_33wSnnd3f7Oau2HynZq-155" value="24" style="strokeWidth=1;shadow=0;dashed=0;align=center;html=1;shape=mxgraph.mockup.forms.rrect;rSize=0;strokeColor=#ff0000;fontColor=#ffffff;strokeWidth=2;fillColor=#008cff;" vertex="1" parent="_33wSnnd3f7Oau2HynZq-103">
          <mxGeometry x="46.875" y="67.88571428571429" width="18.75" height="12.571428571428573" as="geometry" />
        </mxCell>
        <mxCell id="_33wSnnd3f7Oau2HynZq-209" value="" style="sketch=0;pointerEvents=1;shadow=0;dashed=0;html=1;strokeColor=none;fillColor=#505050;labelPosition=center;verticalLabelPosition=bottom;verticalAlign=top;outlineConnect=0;align=center;shape=mxgraph.office.concepts.calendar;" vertex="1" parent="1">
          <mxGeometry x="727" y="395" width="53" height="49" as="geometry" />
        </mxCell>
        <mxCell id="_33wSnnd3f7Oau2HynZq-210" value="" style="endArrow=classic;html=1;rounded=0;entryX=-0.008;entryY=0.494;entryDx=0;entryDy=0;entryPerimeter=0;" edge="1" parent="1" target="_33wSnnd3f7Oau2HynZq-103">
          <mxGeometry width="50" height="50" relative="1" as="geometry">
            <mxPoint x="780" y="415" as="sourcePoint" />
            <mxPoint x="830" y="365" as="targetPoint" />
          </mxGeometry>
        </mxCell>
        <mxCell id="_33wSnnd3f7Oau2HynZq-211" value="" style="verticalLabelPosition=bottom;verticalAlign=top;html=1;shadow=0;dashed=0;strokeWidth=1;shape=mxgraph.android.time_picker;sketch=0;" vertex="1" parent="1">
          <mxGeometry x="650" y="390" width="40" height="50" as="geometry" />
        </mxCell>
        <mxCell id="_33wSnnd3f7Oau2HynZq-212" value="Booking" style="verticalLabelPosition=middle;verticalAlign=middle;html=1;shape=mxgraph.basic.banner;horizontal=1;align=center;labelPosition=center;fontSize=11;fontColor=#25091d;labelBackgroundColor=#D94ABE;fillColor=#D94ABE;" vertex="1" parent="1">
          <mxGeometry x="640" y="195" width="140" height="25" as="geometry" />
        </mxCell>
        <mxCell id="_33wSnnd3f7Oau2HynZq-213" value="&lt;font style=&quot;font-size: 8px;&quot;&gt;Number of attendees&lt;/font&gt;" style="rounded=0;html=1;align=left;fontSize=9;" vertex="1" parent="1">
          <mxGeometry x="640" y="235" width="102.5" height="20" as="geometry" />
        </mxCell>
        <mxCell id="_33wSnnd3f7Oau2HynZq-215" value="" style="rounded=0;whiteSpace=wrap;html=1;" vertex="1" parent="1">
          <mxGeometry x="722.5" y="235" width="20" height="20" as="geometry" />
        </mxCell>
        <mxCell id="_33wSnnd3f7Oau2HynZq-214" value="" style="html=1;shadow=0;dashed=0;align=center;verticalAlign=middle;shape=mxgraph.arrows2.arrow;dy=0.6;dx=40;direction=south;notch=0;" vertex="1" parent="1">
          <mxGeometry x="725" y="240" width="15" height="10" as="geometry" />
        </mxCell>
        <mxCell id="_33wSnnd3f7Oau2HynZq-219" value="" style="endArrow=classic;html=1;rounded=0;exitX=0.5;exitY=1;exitDx=0;exitDy=0;" edge="1" parent="1" source="_33wSnnd3f7Oau2HynZq-102">
          <mxGeometry width="50" height="50" relative="1" as="geometry">
            <mxPoint x="710" y="510" as="sourcePoint" />
            <mxPoint x="710" y="500" as="targetPoint" />
          </mxGeometry>
        </mxCell>
        <mxCell id="_33wSnnd3f7Oau2HynZq-222" value="" style="rounded=0;whiteSpace=wrap;html=1;shadow=0;" vertex="1" parent="1">
          <mxGeometry x="630" y="500" width="160" height="120" as="geometry" />
        </mxCell>
        <mxCell id="_33wSnnd3f7Oau2HynZq-221" value="Booking" style="verticalLabelPosition=middle;verticalAlign=middle;html=1;shape=mxgraph.basic.banner;horizontal=1;align=center;labelPosition=center;fontSize=11;fontColor=#25091d;labelBackgroundColor=#D94ABE;fillColor=#D94ABE;" vertex="1" parent="1">
          <mxGeometry x="640" y="505" width="140" height="25" as="geometry" />
        </mxCell>
        <mxCell id="_33wSnnd3f7Oau2HynZq-223" value="Email:" style="text;html=1;strokeColor=none;fillColor=none;align=center;verticalAlign=middle;whiteSpace=wrap;rounded=0;" vertex="1" parent="1">
          <mxGeometry x="630" y="540" width="60" height="30" as="geometry" />
        </mxCell>
        <mxCell id="_33wSnnd3f7Oau2HynZq-224" value="..." style="rounded=0;whiteSpace=wrap;html=1;" vertex="1" parent="1">
          <mxGeometry x="680" y="545" width="105" height="20" as="geometry" />
        </mxCell>
        <mxCell id="_33wSnnd3f7Oau2HynZq-225" value="Finish" style="rounded=1;whiteSpace=wrap;html=1;fillColor=#d5e8d4;strokeColor=#82b366;" vertex="1" parent="1">
          <mxGeometry x="685" y="590" width="50" height="20" as="geometry" />
        </mxCell>
        <mxCell id="_33wSnnd3f7Oau2HynZq-226" value="Next" style="rounded=1;whiteSpace=wrap;html=1;fillColor=#d5e8d4;strokeColor=#82b366;" vertex="1" parent="1">
          <mxGeometry x="685" y="445" width="50" height="20" as="geometry" />
        </mxCell>
        <mxCell id="_33wSnnd3f7Oau2HynZq-227" value="Next" style="rounded=1;whiteSpace=wrap;html=1;fillColor=#d5e8d4;strokeColor=#82b366;" vertex="1" parent="1">
          <mxGeometry x="685" y="280" width="50" height="20" as="geometry" />
        </mxCell>
        <mxCell id="_33wSnnd3f7Oau2HynZq-228" value="Next" style="rounded=1;whiteSpace=wrap;html=1;fillColor=#d5e8d4;strokeColor=#82b366;" vertex="1" parent="1">
          <mxGeometry x="687.5" y="120" width="50" height="20" as="geometry" />
        </mxCell>
      </root>
    </mxGraphModel>
  </diagram>
</mxfile>
